<svg width="61" height="51" fill="none" xmlns="http://www.w3.org/2000/svg"><path d="M2.082 1.832h56.836M11.58 49.169a7.553 7.553 0 1 0 0-15.106 7.553 7.553 0 0 0 0 15.106v0Z" stroke="#fff" stroke-width="3.4" stroke-linecap="square"/><path d="M11.58 34.064V1.754" stroke="#fff" stroke-width="3.4"/><path d="M26.763 49.169a7.552 7.552 0 1 0-.156-15.104 7.552 7.552 0 0 0 .156 15.104v0Z" stroke="#fff" stroke-width="3.4" stroke-linecap="square"/><path d="M26.763 34.064V1.754" stroke="#fff" stroke-width="3.4"/><path d="M57.75 31.962a7.552 7.552 0 1 1-10.433-2.569 7.552 7.552 0 0 1 10.433 2.491v.078Z" stroke="#fff" stroke-width="3.4" stroke-linecap="square"/><path d="M48.563 28.848 37.896 1.832" stroke="#fff" stroke-width="3.4"/></svg>